<mxfile host="app.diagrams.net" agent="Mozilla/5.0 (X11; Linux x86_64) AppleWebKit/537.36 (KHTML, like Gecko) Chrome/130.0.0.0 Safari/537.36" version="24.8.4">
  <diagram name="Page-1" id="ly4c57xhCOYRpJJMbKzn">
    <mxGraphModel dx="578" dy="792" grid="1" gridSize="10" guides="1" tooltips="1" connect="1" arrows="1" fold="1" page="1" pageScale="1" pageWidth="827" pageHeight="1169" math="0" shadow="0">
      <root>
        <mxCell id="0" />
        <mxCell id="1" parent="0" />
        <mxCell id="pbPmaoMiispyIK3xkd-3-42" value="" style="rounded=0;whiteSpace=wrap;html=1;strokeColor=none;" vertex="1" parent="1">
          <mxGeometry width="560" height="360" as="geometry" />
        </mxCell>
        <mxCell id="pbPmaoMiispyIK3xkd-3-9" value="" style="group" vertex="1" connectable="0" parent="1">
          <mxGeometry x="120" y="40" width="80" height="40" as="geometry" />
        </mxCell>
        <mxCell id="pbPmaoMiispyIK3xkd-3-5" value="" style="rounded=0;whiteSpace=wrap;html=1;" vertex="1" parent="pbPmaoMiispyIK3xkd-3-9">
          <mxGeometry width="80" height="40" as="geometry" />
        </mxCell>
        <mxCell id="pbPmaoMiispyIK3xkd-3-6" value="" style="rounded=0;whiteSpace=wrap;html=1;" vertex="1" parent="pbPmaoMiispyIK3xkd-3-9">
          <mxGeometry width="30" height="40" as="geometry" />
        </mxCell>
        <mxCell id="pbPmaoMiispyIK3xkd-3-30" value="" style="group" vertex="1" connectable="0" parent="1">
          <mxGeometry x="120" y="120" width="80" height="40" as="geometry" />
        </mxCell>
        <mxCell id="pbPmaoMiispyIK3xkd-3-12" value="" style="rounded=0;whiteSpace=wrap;html=1;" vertex="1" parent="pbPmaoMiispyIK3xkd-3-30">
          <mxGeometry width="80" height="40" as="geometry" />
        </mxCell>
        <mxCell id="pbPmaoMiispyIK3xkd-3-28" value="" style="rounded=0;whiteSpace=wrap;html=1;" vertex="1" parent="pbPmaoMiispyIK3xkd-3-30">
          <mxGeometry width="10" height="40" as="geometry" />
        </mxCell>
        <mxCell id="pbPmaoMiispyIK3xkd-3-29" value="" style="endArrow=none;dashed=1;html=1;rounded=0;" edge="1" parent="pbPmaoMiispyIK3xkd-3-30">
          <mxGeometry width="50" height="50" relative="1" as="geometry">
            <mxPoint x="30" as="sourcePoint" />
            <mxPoint x="30" y="40" as="targetPoint" />
          </mxGeometry>
        </mxCell>
        <mxCell id="pbPmaoMiispyIK3xkd-3-31" value="" style="group" vertex="1" connectable="0" parent="1">
          <mxGeometry x="440" y="40" width="80" height="40" as="geometry" />
        </mxCell>
        <mxCell id="pbPmaoMiispyIK3xkd-3-32" value="" style="rounded=0;whiteSpace=wrap;html=1;fillColor=#B3B3B3;" vertex="1" parent="pbPmaoMiispyIK3xkd-3-31">
          <mxGeometry width="80" height="40" as="geometry" />
        </mxCell>
        <mxCell id="pbPmaoMiispyIK3xkd-3-33" value="" style="rounded=0;whiteSpace=wrap;html=1;" vertex="1" parent="pbPmaoMiispyIK3xkd-3-31">
          <mxGeometry width="30" height="40" as="geometry" />
        </mxCell>
        <mxCell id="pbPmaoMiispyIK3xkd-3-34" value="" style="group" vertex="1" connectable="0" parent="1">
          <mxGeometry x="280" y="40" width="80" height="40" as="geometry" />
        </mxCell>
        <mxCell id="pbPmaoMiispyIK3xkd-3-49" value="" style="group" vertex="1" connectable="0" parent="pbPmaoMiispyIK3xkd-3-34">
          <mxGeometry x="-30" width="110" height="40" as="geometry" />
        </mxCell>
        <mxCell id="pbPmaoMiispyIK3xkd-3-35" value="" style="rounded=0;whiteSpace=wrap;html=1;" vertex="1" parent="pbPmaoMiispyIK3xkd-3-49">
          <mxGeometry x="30" width="80" height="40" as="geometry" />
        </mxCell>
        <mxCell id="pbPmaoMiispyIK3xkd-3-36" value="" style="rounded=0;whiteSpace=wrap;html=1;dashed=1;fillColor=none;" vertex="1" parent="pbPmaoMiispyIK3xkd-3-49">
          <mxGeometry width="30" height="40" as="geometry" />
        </mxCell>
        <mxCell id="pbPmaoMiispyIK3xkd-3-38" value="" style="group" vertex="1" connectable="0" parent="1">
          <mxGeometry x="440" y="120" width="80" height="40" as="geometry" />
        </mxCell>
        <mxCell id="pbPmaoMiispyIK3xkd-3-39" value="" style="rounded=0;whiteSpace=wrap;html=1;fillColor=#B3B3B3;" vertex="1" parent="pbPmaoMiispyIK3xkd-3-38">
          <mxGeometry width="80" height="40" as="geometry" />
        </mxCell>
        <mxCell id="pbPmaoMiispyIK3xkd-3-40" value="" style="rounded=0;whiteSpace=wrap;html=1;" vertex="1" parent="pbPmaoMiispyIK3xkd-3-38">
          <mxGeometry width="10" height="40" as="geometry" />
        </mxCell>
        <mxCell id="pbPmaoMiispyIK3xkd-3-43" value="&lt;font style=&quot;font-size: 8px;&quot; data-font-src=&quot;https://fonts.googleapis.com/css?family=Fira+Code&quot; face=&quot;Fira Code&quot;&gt;lg,static,full&lt;/font&gt;" style="text;html=1;align=center;verticalAlign=middle;whiteSpace=wrap;rounded=0;" vertex="1" parent="1">
          <mxGeometry x="120" y="80" width="80" height="10" as="geometry" />
        </mxCell>
        <mxCell id="pbPmaoMiispyIK3xkd-3-44" value="&lt;font style=&quot;font-size: 8px;&quot; data-font-src=&quot;https://fonts.googleapis.com/css?family=Fira+Code&quot; face=&quot;Fira Code&quot;&gt;lg,float,full&lt;/font&gt;" style="text;html=1;align=center;verticalAlign=middle;whiteSpace=wrap;rounded=0;" vertex="1" parent="1">
          <mxGeometry x="440" y="80" width="80" height="10" as="geometry" />
        </mxCell>
        <mxCell id="pbPmaoMiispyIK3xkd-3-46" value="&lt;font style=&quot;font-size: 8px;&quot; data-font-src=&quot;https://fonts.googleapis.com/css?family=Fira+Code&quot; face=&quot;Fira Code&quot;&gt;lg,static,short&lt;/font&gt;" style="text;html=1;align=center;verticalAlign=middle;whiteSpace=wrap;rounded=0;" vertex="1" parent="1">
          <mxGeometry x="120" y="160" width="80" height="10" as="geometry" />
        </mxCell>
        <mxCell id="pbPmaoMiispyIK3xkd-3-47" value="&lt;font style=&quot;font-size: 8px;&quot; data-font-src=&quot;https://fonts.googleapis.com/css?family=Fira+Code&quot; face=&quot;Fira Code&quot;&gt;lg,float,short&lt;/font&gt;" style="text;html=1;align=center;verticalAlign=middle;whiteSpace=wrap;rounded=0;" vertex="1" parent="1">
          <mxGeometry x="440" y="160" width="80" height="10" as="geometry" />
        </mxCell>
        <mxCell id="pbPmaoMiispyIK3xkd-3-48" value="&lt;font style=&quot;font-size: 8px;&quot; data-font-src=&quot;https://fonts.googleapis.com/css?family=Fira+Code&quot; face=&quot;Fira Code&quot;&gt;lg,hidden,full&lt;/font&gt;" style="text;html=1;align=center;verticalAlign=middle;whiteSpace=wrap;rounded=0;" vertex="1" parent="1">
          <mxGeometry x="280" y="80" width="80" height="10" as="geometry" />
        </mxCell>
        <mxCell id="pbPmaoMiispyIK3xkd-3-54" value="" style="group" vertex="1" connectable="0" parent="1">
          <mxGeometry x="280" y="120" width="80" height="40" as="geometry" />
        </mxCell>
        <mxCell id="pbPmaoMiispyIK3xkd-3-55" value="" style="rounded=0;whiteSpace=wrap;html=1;" vertex="1" parent="pbPmaoMiispyIK3xkd-3-54">
          <mxGeometry width="80" height="40" as="geometry" />
        </mxCell>
        <mxCell id="pbPmaoMiispyIK3xkd-3-58" value="&lt;font style=&quot;font-size: 8px;&quot; data-font-src=&quot;https://fonts.googleapis.com/css?family=Fira+Code&quot; face=&quot;Fira Code&quot;&gt;lg,hidden,short&lt;/font&gt;" style="text;html=1;align=center;verticalAlign=middle;whiteSpace=wrap;rounded=0;" vertex="1" parent="1">
          <mxGeometry x="280" y="160" width="80" height="10" as="geometry" />
        </mxCell>
        <mxCell id="pbPmaoMiispyIK3xkd-3-62" value="" style="group" vertex="1" connectable="0" parent="1">
          <mxGeometry x="40" y="50" width="40" height="30" as="geometry" />
        </mxCell>
        <mxCell id="pbPmaoMiispyIK3xkd-3-60" value="" style="ellipse;fillColor=#d5e8d4;html=1;strokeColor=#82b366;" vertex="1" parent="pbPmaoMiispyIK3xkd-3-62">
          <mxGeometry x="10" width="20" height="20" as="geometry" />
        </mxCell>
        <mxCell id="pbPmaoMiispyIK3xkd-3-61" value="&lt;font style=&quot;font-size: 8px;&quot; data-font-src=&quot;https://fonts.googleapis.com/css?family=Fira+Code&quot; face=&quot;Fira Code&quot;&gt;[def]lg&lt;/font&gt;" style="text;html=1;align=center;verticalAlign=middle;whiteSpace=wrap;rounded=0;" vertex="1" parent="pbPmaoMiispyIK3xkd-3-62">
          <mxGeometry y="20" width="40" height="10" as="geometry" />
        </mxCell>
        <mxCell id="pbPmaoMiispyIK3xkd-3-66" value="" style="group" vertex="1" connectable="0" parent="1">
          <mxGeometry x="40" y="210" width="40" height="30" as="geometry" />
        </mxCell>
        <mxCell id="pbPmaoMiispyIK3xkd-3-67" value="" style="ellipse;fillColor=#fff2cc;html=1;strokeColor=#d6b656;" vertex="1" parent="pbPmaoMiispyIK3xkd-3-66">
          <mxGeometry x="10" width="20" height="20" as="geometry" />
        </mxCell>
        <mxCell id="pbPmaoMiispyIK3xkd-3-68" value="&lt;font style=&quot;font-size: 8px;&quot; data-font-src=&quot;https://fonts.googleapis.com/css?family=Fira+Code&quot; face=&quot;Fira Code&quot;&gt;[def]sm&lt;/font&gt;" style="text;html=1;align=center;verticalAlign=middle;whiteSpace=wrap;rounded=0;" vertex="1" parent="pbPmaoMiispyIK3xkd-3-66">
          <mxGeometry y="20" width="40" height="10" as="geometry" />
        </mxCell>
        <mxCell id="pbPmaoMiispyIK3xkd-3-78" value="" style="group" vertex="1" connectable="0" parent="1">
          <mxGeometry x="40" y="130" width="40" height="30" as="geometry" />
        </mxCell>
        <mxCell id="pbPmaoMiispyIK3xkd-3-80" value="&lt;font style=&quot;font-size: 8px;&quot; data-font-src=&quot;https://fonts.googleapis.com/css?family=Fira+Code&quot; face=&quot;Fira Code&quot;&gt;[ico]lg&lt;/font&gt;" style="text;html=1;align=center;verticalAlign=middle;whiteSpace=wrap;rounded=0;" vertex="1" parent="pbPmaoMiispyIK3xkd-3-78">
          <mxGeometry y="20" width="40" height="10" as="geometry" />
        </mxCell>
        <mxCell id="pbPmaoMiispyIK3xkd-3-79" value="" style="ellipse;fillColor=#e1d5e7;html=1;strokeColor=#9673a6;" vertex="1" parent="pbPmaoMiispyIK3xkd-3-78">
          <mxGeometry x="10" width="20" height="20" as="geometry" />
        </mxCell>
        <mxCell id="pbPmaoMiispyIK3xkd-3-81" value="" style="group" vertex="1" connectable="0" parent="1">
          <mxGeometry x="40" y="290" width="40" height="30" as="geometry" />
        </mxCell>
        <mxCell id="pbPmaoMiispyIK3xkd-3-82" value="" style="ellipse;fillColor=#f8cecc;html=1;strokeColor=#b85450;" vertex="1" parent="pbPmaoMiispyIK3xkd-3-81">
          <mxGeometry x="10" width="20" height="20" as="geometry" />
        </mxCell>
        <mxCell id="pbPmaoMiispyIK3xkd-3-83" value="&lt;font style=&quot;font-size: 8px;&quot; data-font-src=&quot;https://fonts.googleapis.com/css?family=Fira+Code&quot; face=&quot;Fira Code&quot;&gt;[ico]sm&lt;/font&gt;" style="text;html=1;align=center;verticalAlign=middle;whiteSpace=wrap;rounded=0;" vertex="1" parent="pbPmaoMiispyIK3xkd-3-81">
          <mxGeometry y="20" width="40" height="10" as="geometry" />
        </mxCell>
        <mxCell id="pbPmaoMiispyIK3xkd-3-90" value="" style="group" vertex="1" connectable="0" parent="1">
          <mxGeometry x="120" y="200" width="40" height="40" as="geometry" />
        </mxCell>
        <mxCell id="pbPmaoMiispyIK3xkd-3-91" value="" style="rounded=0;whiteSpace=wrap;html=1;" vertex="1" parent="pbPmaoMiispyIK3xkd-3-90">
          <mxGeometry width="40" height="40" as="geometry" />
        </mxCell>
        <mxCell id="pbPmaoMiispyIK3xkd-3-92" value="" style="rounded=0;whiteSpace=wrap;html=1;" vertex="1" parent="pbPmaoMiispyIK3xkd-3-90">
          <mxGeometry width="30" height="40" as="geometry" />
        </mxCell>
        <mxCell id="pbPmaoMiispyIK3xkd-3-93" value="&lt;font style=&quot;font-size: 8px;&quot; data-font-src=&quot;https://fonts.googleapis.com/css?family=Fira+Code&quot; face=&quot;Fira Code&quot;&gt;sm,static,full&lt;/font&gt;" style="text;html=1;align=center;verticalAlign=middle;whiteSpace=wrap;rounded=0;" vertex="1" parent="1">
          <mxGeometry x="120" y="240" width="80" height="10" as="geometry" />
        </mxCell>
        <mxCell id="pbPmaoMiispyIK3xkd-3-102" value="" style="group" vertex="1" connectable="0" parent="1">
          <mxGeometry x="440" y="200" width="40" height="40" as="geometry" />
        </mxCell>
        <mxCell id="pbPmaoMiispyIK3xkd-3-103" value="" style="rounded=0;whiteSpace=wrap;html=1;fillColor=#B3B3B3;" vertex="1" parent="pbPmaoMiispyIK3xkd-3-102">
          <mxGeometry width="40" height="40" as="geometry" />
        </mxCell>
        <mxCell id="pbPmaoMiispyIK3xkd-3-104" value="" style="rounded=0;whiteSpace=wrap;html=1;" vertex="1" parent="pbPmaoMiispyIK3xkd-3-102">
          <mxGeometry width="30" height="40" as="geometry" />
        </mxCell>
        <mxCell id="pbPmaoMiispyIK3xkd-3-105" value="&lt;font style=&quot;font-size: 8px;&quot; data-font-src=&quot;https://fonts.googleapis.com/css?family=Fira+Code&quot; face=&quot;Fira Code&quot;&gt;sm,float,full&lt;/font&gt;" style="text;html=1;align=center;verticalAlign=middle;whiteSpace=wrap;rounded=0;" vertex="1" parent="1">
          <mxGeometry x="440" y="240" width="80" height="10" as="geometry" />
        </mxCell>
        <mxCell id="pbPmaoMiispyIK3xkd-3-106" value="" style="group" vertex="1" connectable="0" parent="1">
          <mxGeometry x="120" y="280" width="40" height="40" as="geometry" />
        </mxCell>
        <mxCell id="pbPmaoMiispyIK3xkd-3-107" value="" style="rounded=0;whiteSpace=wrap;html=1;" vertex="1" parent="pbPmaoMiispyIK3xkd-3-106">
          <mxGeometry width="40" height="40" as="geometry" />
        </mxCell>
        <mxCell id="pbPmaoMiispyIK3xkd-3-108" value="" style="rounded=0;whiteSpace=wrap;html=1;" vertex="1" parent="pbPmaoMiispyIK3xkd-3-106">
          <mxGeometry width="10" height="40" as="geometry" />
        </mxCell>
        <mxCell id="pbPmaoMiispyIK3xkd-3-110" value="&lt;font style=&quot;font-size: 8px;&quot; data-font-src=&quot;https://fonts.googleapis.com/css?family=Fira+Code&quot; face=&quot;Fira Code&quot;&gt;sm,static,short&lt;/font&gt;" style="text;html=1;align=center;verticalAlign=middle;whiteSpace=wrap;rounded=0;" vertex="1" parent="1">
          <mxGeometry x="120" y="320" width="80" height="10" as="geometry" />
        </mxCell>
        <mxCell id="pbPmaoMiispyIK3xkd-3-149" style="edgeStyle=orthogonalEdgeStyle;rounded=0;orthogonalLoop=1;jettySize=auto;html=1;exitX=1;exitY=0.5;exitDx=0;exitDy=0;fillColor=#fff2cc;strokeColor=#d6b656;" edge="1" parent="1" source="pbPmaoMiispyIK3xkd-3-128" target="pbPmaoMiispyIK3xkd-3-104">
          <mxGeometry relative="1" as="geometry" />
        </mxCell>
        <mxCell id="pbPmaoMiispyIK3xkd-3-124" value="&lt;font style=&quot;font-size: 8px;&quot; data-font-src=&quot;https://fonts.googleapis.com/css?family=Fira+Code&quot; face=&quot;Fira Code&quot;&gt;sm,hidden,short&lt;/font&gt;" style="text;html=1;align=center;verticalAlign=middle;whiteSpace=wrap;rounded=0;" vertex="1" parent="1">
          <mxGeometry x="270" y="325" width="80" height="10" as="geometry" />
        </mxCell>
        <mxCell id="pbPmaoMiispyIK3xkd-3-130" value="&lt;font style=&quot;font-size: 8px;&quot; data-font-src=&quot;https://fonts.googleapis.com/css?family=Fira+Code&quot; face=&quot;Fira Code&quot;&gt;sm,hidden,full&lt;/font&gt;" style="text;html=1;align=center;verticalAlign=middle;whiteSpace=wrap;rounded=0;" vertex="1" parent="1">
          <mxGeometry x="280" y="240" width="80" height="10" as="geometry" />
        </mxCell>
        <mxCell id="pbPmaoMiispyIK3xkd-3-128" value="" style="rounded=0;whiteSpace=wrap;html=1;" vertex="1" parent="1">
          <mxGeometry x="280" y="200" width="40" height="40" as="geometry" />
        </mxCell>
        <mxCell id="pbPmaoMiispyIK3xkd-3-129" value="" style="rounded=0;whiteSpace=wrap;html=1;dashed=1;fillColor=none;" vertex="1" parent="1">
          <mxGeometry x="250" y="200" width="30" height="40" as="geometry" />
        </mxCell>
        <mxCell id="pbPmaoMiispyIK3xkd-3-131" style="edgeStyle=orthogonalEdgeStyle;rounded=0;orthogonalLoop=1;jettySize=auto;html=1;exitX=1;exitY=0.5;exitDx=0;exitDy=0;entryX=0;entryY=0.5;entryDx=0;entryDy=0;fillColor=#d5e8d4;strokeColor=#82b366;" edge="1" parent="1" source="pbPmaoMiispyIK3xkd-3-60" target="pbPmaoMiispyIK3xkd-3-6">
          <mxGeometry relative="1" as="geometry" />
        </mxCell>
        <mxCell id="pbPmaoMiispyIK3xkd-3-132" style="edgeStyle=orthogonalEdgeStyle;rounded=0;orthogonalLoop=1;jettySize=auto;html=1;exitX=0.5;exitY=0;exitDx=0;exitDy=0;entryX=0.5;entryY=0;entryDx=0;entryDy=0;fillColor=#d5e8d4;strokeColor=#82b366;" edge="1" parent="1" source="pbPmaoMiispyIK3xkd-3-5" target="pbPmaoMiispyIK3xkd-3-35">
          <mxGeometry relative="1" as="geometry" />
        </mxCell>
        <mxCell id="pbPmaoMiispyIK3xkd-3-138" style="edgeStyle=orthogonalEdgeStyle;rounded=0;orthogonalLoop=1;jettySize=auto;html=1;exitX=1;exitY=0.5;exitDx=0;exitDy=0;entryX=0;entryY=0.5;entryDx=0;entryDy=0;fillColor=#e1d5e7;strokeColor=#9673a6;" edge="1" parent="1" source="pbPmaoMiispyIK3xkd-3-79" target="pbPmaoMiispyIK3xkd-3-28">
          <mxGeometry relative="1" as="geometry" />
        </mxCell>
        <mxCell id="pbPmaoMiispyIK3xkd-3-143" style="edgeStyle=orthogonalEdgeStyle;rounded=0;orthogonalLoop=1;jettySize=auto;html=1;exitX=0.5;exitY=0;exitDx=0;exitDy=0;entryX=0.5;entryY=1;entryDx=0;entryDy=0;fillColor=#e1d5e7;strokeColor=#9673a6;" edge="1" parent="1" source="pbPmaoMiispyIK3xkd-3-12" target="pbPmaoMiispyIK3xkd-3-43">
          <mxGeometry relative="1" as="geometry" />
        </mxCell>
        <mxCell id="pbPmaoMiispyIK3xkd-3-145" style="edgeStyle=orthogonalEdgeStyle;rounded=0;orthogonalLoop=1;jettySize=auto;html=1;exitX=1;exitY=0.5;exitDx=0;exitDy=0;entryX=0;entryY=0.5;entryDx=0;entryDy=0;fillColor=#f8cecc;strokeColor=#b85450;" edge="1" parent="1" source="pbPmaoMiispyIK3xkd-3-82" target="pbPmaoMiispyIK3xkd-3-108">
          <mxGeometry relative="1" as="geometry" />
        </mxCell>
        <mxCell id="pbPmaoMiispyIK3xkd-3-150" value="" style="group" vertex="1" connectable="0" parent="1">
          <mxGeometry x="440" y="280" width="40" height="40" as="geometry" />
        </mxCell>
        <mxCell id="pbPmaoMiispyIK3xkd-3-151" value="" style="rounded=0;whiteSpace=wrap;html=1;fillColor=#B3B3B3;" vertex="1" parent="pbPmaoMiispyIK3xkd-3-150">
          <mxGeometry width="40" height="40" as="geometry" />
        </mxCell>
        <mxCell id="pbPmaoMiispyIK3xkd-3-152" value="" style="rounded=0;whiteSpace=wrap;html=1;" vertex="1" parent="pbPmaoMiispyIK3xkd-3-150">
          <mxGeometry width="10" height="40" as="geometry" />
        </mxCell>
        <mxCell id="pbPmaoMiispyIK3xkd-3-153" value="&lt;font style=&quot;font-size: 8px;&quot; data-font-src=&quot;https://fonts.googleapis.com/css?family=Fira+Code&quot; face=&quot;Fira Code&quot;&gt;sm,float,short&lt;/font&gt;" style="text;html=1;align=center;verticalAlign=middle;whiteSpace=wrap;rounded=0;" vertex="1" parent="1">
          <mxGeometry x="440" y="320" width="80" height="10" as="geometry" />
        </mxCell>
        <mxCell id="pbPmaoMiispyIK3xkd-3-169" style="edgeStyle=orthogonalEdgeStyle;rounded=0;orthogonalLoop=1;jettySize=auto;html=1;exitX=0.5;exitY=0;exitDx=0;exitDy=0;entryX=0.25;entryY=1;entryDx=0;entryDy=0;fillColor=#f8cecc;strokeColor=#b85450;" edge="1" parent="1" source="pbPmaoMiispyIK3xkd-3-154" target="pbPmaoMiispyIK3xkd-3-93">
          <mxGeometry relative="1" as="geometry" />
        </mxCell>
        <mxCell id="pbPmaoMiispyIK3xkd-3-154" value="" style="rounded=0;whiteSpace=wrap;html=1;dashed=1;fillColor=none;" vertex="1" parent="1">
          <mxGeometry x="120" y="280" width="30" height="40" as="geometry" />
        </mxCell>
        <mxCell id="pbPmaoMiispyIK3xkd-3-159" value="" style="rounded=0;whiteSpace=wrap;html=1;dashed=1;fillColor=none;" vertex="1" parent="1">
          <mxGeometry x="440" y="120" width="30" height="40" as="geometry" />
        </mxCell>
        <mxCell id="pbPmaoMiispyIK3xkd-3-161" value="" style="rounded=0;whiteSpace=wrap;html=1;dashed=1;fillColor=none;" vertex="1" parent="1">
          <mxGeometry x="440" y="280" width="30" height="40" as="geometry" />
        </mxCell>
        <mxCell id="pbPmaoMiispyIK3xkd-3-59" value="" style="rounded=0;whiteSpace=wrap;html=1;dashed=1;fillColor=none;" vertex="1" parent="1">
          <mxGeometry x="270" y="120" width="30" height="40" as="geometry" />
        </mxCell>
        <mxCell id="pbPmaoMiispyIK3xkd-3-56" value="" style="rounded=0;whiteSpace=wrap;html=1;dashed=1;" vertex="1" parent="1">
          <mxGeometry x="270" y="120" width="10" height="40" as="geometry" />
        </mxCell>
        <mxCell id="pbPmaoMiispyIK3xkd-3-125" value="" style="rounded=0;whiteSpace=wrap;html=1;dashed=1;" vertex="1" parent="1">
          <mxGeometry x="270" y="280" width="10" height="40" as="geometry" />
        </mxCell>
        <mxCell id="pbPmaoMiispyIK3xkd-3-162" style="edgeStyle=orthogonalEdgeStyle;rounded=0;orthogonalLoop=1;jettySize=auto;html=1;exitX=0.5;exitY=0;exitDx=0;exitDy=0;entryX=0.5;entryY=0;entryDx=0;entryDy=0;fillColor=#fff2cc;strokeColor=#d6b656;" edge="1" parent="1" source="pbPmaoMiispyIK3xkd-3-67" target="pbPmaoMiispyIK3xkd-3-128">
          <mxGeometry relative="1" as="geometry" />
        </mxCell>
        <mxCell id="pbPmaoMiispyIK3xkd-3-122" value="" style="group" vertex="1" connectable="0" parent="1">
          <mxGeometry x="280" y="280" width="40" height="40" as="geometry" />
        </mxCell>
        <mxCell id="pbPmaoMiispyIK3xkd-3-123" value="" style="rounded=0;whiteSpace=wrap;html=1;" vertex="1" parent="pbPmaoMiispyIK3xkd-3-122">
          <mxGeometry width="40" height="40" as="geometry" />
        </mxCell>
        <mxCell id="pbPmaoMiispyIK3xkd-3-121" value="" style="rounded=0;whiteSpace=wrap;html=1;dashed=1;fillColor=none;" vertex="1" parent="1">
          <mxGeometry x="280" y="280" width="20" height="40" as="geometry" />
        </mxCell>
      </root>
    </mxGraphModel>
  </diagram>
</mxfile>
